<svg width="586" height="526" viewBox="0 0 586 526" fill="none" xmlns="http://www.w3.org/2000/svg">
<g clip-path="url(#clip0)">
<path d="M0 1526V0H1731.99V1526H0ZM1515.3 1075.26C1519.98 1071.06 1521.26 1068.9 1523.06 1068.45C1528.09 1066.69 1533.26 1065.38 1538.52 1064.51C1613.19 1054.47 1661.42 1012.63 1682.72 942.114C1723.65 806.554 1678.04 693.249 1588.81 591.134C1574 574.949 1562.9 555.772 1556.29 534.926C1424.78 61.6121 879.721 -140.328 468.791 132.698C417.152 167.033 417.473 166.97 367.053 133.271C356.405 126.149 345.435 119.537 334.338 113.178C202.514 36.8783 63.9552 91.6234 25.21 238.501C-13.7277 386.396 26.6213 517.314 125.729 630.81C148.951 657.324 161.845 681.677 161.267 717.728C159.728 813.103 181.345 904.727 219.513 992.281C249.727 1061.71 249.406 1060.76 187.76 1104.25C112.387 1157.41 49.2013 1221.18 21.9385 1311.98C2.69419 1376.77 22.6441 1428.14 82.6864 1459.36C113.984 1475.37 147.229 1487.31 181.602 1494.91C313.554 1524.66 447.174 1519.51 580.28 1504.64C672.524 1494.34 765.153 1482.32 843.863 1425.09C863.107 1411.23 883.249 1417.46 903.905 1428.65C942.394 1449.32 980.369 1475.77 1021.74 1483.91C1188.14 1516.65 1356.66 1528.42 1525.24 1502.35C1573.5 1493.97 1620.15 1478.16 1663.48 1455.49C1719.74 1426.75 1735.39 1378.49 1719.09 1317.76C1702.76 1259.14 1669.74 1206.43 1623.96 1165.93C1589.84 1134.26 1552.76 1105.97 1515.3 1075.26Z" fill="black"/>
<path d="M1515.3 1075.26C1552.76 1106.29 1589.84 1134.58 1623.96 1165.93C1669.71 1206.33 1702.76 1258.93 1719.16 1317.45C1735.45 1378.17 1719.8 1426.43 1663.54 1455.17C1620.21 1477.84 1573.57 1493.66 1525.3 1502.03C1356.72 1528.35 1188.21 1516.33 1021.81 1483.59C980.433 1475.45 942.201 1449 903.969 1428.34C883.314 1417.15 862.915 1410.91 843.927 1424.77C765.218 1482 672.588 1494.02 580.344 1504.32C447.238 1519.2 313.618 1524.35 181.666 1494.59C147.293 1487 114.048 1475.05 82.7505 1459.05C22.7083 1427.83 2.56588 1376.39 22.0026 1311.66C49.2654 1220.86 112.451 1157.09 187.824 1103.93C249.47 1060.44 249.791 1061.4 219.577 991.963C181.41 904.409 159.792 812.913 161.331 717.411C161.909 681.613 149.015 657.006 125.794 630.492C26.6855 516.996 -13.6634 386.078 25.2742 238.183C63.7628 91.3057 202.578 36.5605 334.402 112.861C345.499 119.219 356.469 125.577 367.117 132.953C417.281 166.652 417.216 166.715 468.855 132.38C879.785 -140.646 1424.66 61.2944 1556.35 534.609C1562.96 555.455 1574.06 574.631 1588.87 590.816C1678.1 692.931 1723.58 806.237 1682.79 941.796C1661.49 1012.31 1613.25 1054.15 1538.58 1064.19C1533.32 1065.06 1528.15 1066.38 1523.12 1068.14C1521.26 1068.9 1520.3 1070.74 1515.3 1075.26ZM201.424 627.186C205.08 1052.24 400.795 1328.76 857.077 1365.26C1138.62 1387.77 1363.84 1194.29 1437.42 1042.83L1404.83 1014.03L1409.77 1003.85L1466.54 1016C1567.51 1037.49 1636.41 993.489 1650.26 892.074C1665.34 782.011 1627.04 688.607 1548.52 609.701C1532.34 593.8 1520.45 574.122 1513.95 552.476C1426.2 217.709 1102.83 7.37578 759.38 63.5834C636.185 83.4478 521.352 138.008 428.571 220.761C412.854 234.495 394.765 245.559 377.702 257.894L368.913 249.31L391.429 202.386C350.311 179.241 310.988 150.82 267.175 133.97C194.175 105.866 128.36 133.08 90.2558 200.733C78.9868 219.972 70.6433 240.755 65.4948 262.408C37.7189 391.037 75.3094 503.008 158.894 601.625C167.939 612.053 183.976 616.885 201.424 627.186ZM232.15 1226.71C232.15 1206.05 218.808 1194.41 193.662 1196.19C162.486 1198.42 125.473 1233.07 121.881 1263.85C119.251 1285.97 127.333 1301.3 151.902 1303.39C186.99 1306.38 231.445 1266.01 232.15 1226.71ZM1583.23 1303.46C1606.64 1303.46 1619.79 1287.69 1616.71 1263.85C1612.93 1234.66 1578.23 1200.26 1548.08 1196.57C1519.4 1192.7 1503.17 1208.85 1507.09 1237.33C1511.38 1268.74 1551.6 1303.71 1583.23 1303.46Z" fill="#3926E2"/>
<path d="M201.424 627.186C183.975 616.886 167.939 612.053 158.83 601.371C75.4376 502.753 37.6546 390.783 65.4306 262.154C70.579 240.5 78.9225 219.718 90.1916 200.478C128.295 132.826 194.111 105.612 267.111 133.716C310.924 150.566 350.503 178.987 391.365 202.131L368.849 249.056L377.637 257.64C394.701 245.305 412.79 234.241 428.507 220.507C521.288 137.754 636.121 83.1935 759.316 63.3291C1102.76 7.12146 1426.45 217.455 1513.89 552.221C1520.39 573.867 1532.28 593.545 1548.46 609.446C1626.98 688.29 1665.27 781.757 1650.2 891.82C1636.34 993.235 1567.45 1037.24 1466.48 1015.74L1409.71 1003.6L1404.77 1013.77L1437.42 1042.51C1363.78 1194.03 1138.62 1387.52 857.077 1365.01C400.795 1328.76 205.272 1052.24 201.424 627.186ZM935.851 494.742C945.216 544.337 952.657 595.394 965.166 645.18C971.581 671.694 991.21 692.868 1022.39 692.423C1051.51 692.041 1065.17 669.66 1073.19 646.197C1107.32 545.799 1105.26 444.575 1074.92 343.922C1067.16 318.108 1052.15 293.819 1020.08 293.819C986.655 293.819 970.17 318.807 963.562 345.893C951.823 393.772 945.216 442.922 935.851 494.742ZM803.321 493.28C792.609 440.569 783.756 387.668 770.414 335.847C763.999 311.431 744.241 288.414 717.299 295.09C698.055 299.859 673.807 318.553 667.393 336.547C630.952 436.947 630.386 546.704 665.789 647.469C674 671.567 689.459 691.978 717.556 693.058C747.641 693.885 765.41 672.267 771.889 647.024C784.654 597.175 792.801 546.244 803.321 493.28V493.28ZM795.431 735.278C795.431 787.988 829.878 835.803 868.303 837.011C906.727 838.219 943.741 787.988 943.035 734.133C942.522 698.272 916.093 678.625 868.624 678.943C821.154 679.261 795.431 699.162 795.431 735.278Z" fill="black"/>
</g>
<defs>
<clipPath id="clip0">
<rect width="1731.99" height="1526" fill="white"/>
</clipPath>
</defs>
</svg>
