<svg id="Calque_1" data-name="Calque 1" xmlns="http://www.w3.org/2000/svg" viewBox="0 0 270 240"><defs><style>.cls-1{fill:#fff;}</style></defs><title>thumbnail_kirby</title><path class="cls-1" d="M164,541.89v-240H434v240ZM400.22,471c.73-.66.93-1,1.21-1.07a14.21,14.21,0,0,1,2.41-.62c11.64-1.58,19.16-8.16,22.48-19.25,6.38-21.32-.73-39.14-14.64-55.2a23.77,23.77,0,0,1-5.07-8.84c-20.5-74.44-105.47-106.2-169.53-63.26-8.05,5.4-8,5.39-15.86.09-1.66-1.12-3.37-2.16-5.1-3.16-20.55-12-42.15-3.39-48.19,19.71-6.07,23.26.22,43.85,15.67,61.7,3.62,4.17,5.63,8,5.54,13.67-.24,15,3.13,29.41,9.08,43.18,4.71,10.92,4.66,10.77-4.95,17.61-11.75,8.36-21.6,18.39-25.85,32.67-3,10.19.11,18.27,9.47,23.18A64,64,0,0,0,192.31,537c20.57,4.68,41.4,3.87,62.15,1.53,14.38-1.62,28.82-3.51,41.09-12.51,3-2.18,6.14-1.2,9.36.56,6,3.25,11.92,7.41,18.37,8.69,25.94,5.15,52.21,7,78.49,2.9a73.17,73.17,0,0,0,21.55-7.37c8.77-4.52,11.21-12.11,8.67-21.66a49.76,49.76,0,0,0-14.83-23.88C411.84,480.28,406.06,475.83,400.22,471Z" transform="translate(-164 -301.89)"/><path d="M400.22,471c5.84,4.88,11.62,9.33,16.94,14.26A49.76,49.76,0,0,1,432,509.09c2.54,9.55.1,17.14-8.67,21.66a73.17,73.17,0,0,1-21.55,7.37c-26.28,4.14-52.55,2.25-78.49-2.9-6.45-1.28-12.41-5.44-18.37-8.69-3.22-1.76-6.4-2.74-9.36-.56-12.27,9-26.71,10.89-41.09,12.51-20.75,2.34-41.58,3.15-62.15-1.53a64,64,0,0,1-15.42-5.59c-9.36-4.91-12.5-13-9.47-23.18,4.25-14.28,14.1-24.31,25.85-32.67,9.61-6.84,9.66-6.69,4.95-17.61-5.95-13.77-9.32-28.16-9.08-43.18.09-5.63-1.92-9.5-5.54-13.67-15.45-17.85-21.74-38.44-15.67-61.7,6-23.1,27.64-31.71,48.19-19.71,1.73,1,3.44,2,5.1,3.16,7.82,5.3,7.81,5.31,15.86-.09,64.06-42.94,149-11.18,169.53,63.26a23.77,23.77,0,0,0,5.07,8.84c13.91,16.06,21,33.88,14.64,55.2-3.32,11.09-10.84,17.67-22.48,19.25a14.21,14.21,0,0,0-2.41.62C401.15,470,401,470.29,400.22,471ZM195.4,400.53c.57,66.85,31.08,110.34,102.21,116.08,43.89,3.54,79-26.89,90.47-50.71L383,461.37l.77-1.6,8.85,1.91c15.74,3.38,26.48-3.54,28.64-19.49,2.35-17.31-3.62-32-15.86-44.41a21.19,21.19,0,0,1-5.39-9c-13.68-52.65-64.09-85.73-117.63-76.89a101.45,101.45,0,0,0-51.57,24.72c-2.45,2.16-5.27,3.9-7.93,5.84l-1.37-1.35,3.51-7.38c-6.41-3.64-12.54-8.11-19.37-10.76-11.38-4.42-21.64-.14-27.58,10.5a35.57,35.57,0,0,0-3.86,9.7c-4.33,20.23,1.53,37.84,14.56,53.35C190.18,398.15,192.68,398.91,195.4,400.53Zm4.79,94.29c0-3.25-2.08-5.08-6-4.8-4.86.35-10.63,5.8-11.19,10.64-.41,3.48.85,5.89,4.68,6.22C193.15,507.35,200.08,501,200.19,494.82Zm210.62,12.07c3.65,0,5.7-2.48,5.22-6.23-.59-4.59-6-10-10.7-10.58-4.47-.61-7,1.93-6.39,6.41C399.61,501.43,405.88,506.93,410.81,506.89Z" transform="translate(-164 -301.89)"/><path class="cls-1" d="M195.4,400.53c-2.72-1.62-5.22-2.38-6.64-4.06-13-15.51-18.89-33.12-14.56-53.35a35.57,35.57,0,0,1,3.86-9.7c5.94-10.64,16.2-14.92,27.58-10.5,6.83,2.65,13,7.12,19.37,10.76l-3.51,7.38,1.37,1.35c2.66-1.94,5.48-3.68,7.93-5.84a101.45,101.45,0,0,1,51.57-24.72c53.54-8.84,104,24.24,117.63,76.89a21.19,21.19,0,0,0,5.39,9c12.24,12.4,18.21,27.1,15.86,44.41-2.16,15.95-12.9,22.87-28.64,19.49l-8.85-1.91-.77,1.6,5.09,4.52c-11.48,23.83-46.58,54.26-90.47,50.72C226.48,510.87,196,467.38,195.4,400.53ZM309.89,379.7c1.46,7.8,2.62,15.83,4.57,23.66,1,4.17,4.06,7.5,8.92,7.43,4.54-.06,6.67-3.58,7.92-7.27,5.32-15.79,5-31.71.27-47.54-1.21-4.06-3.55-7.88-8.55-7.88-5.21,0-7.78,3.93-8.81,8.19C312.38,363.82,311.35,371.55,309.89,379.7Zm-20.66-.23c-1.67-8.29-3.05-16.61-5.13-24.76-1-3.84-4.08-7.46-8.28-6.41-3,.75-6.78,3.69-7.78,6.52a73.27,73.27,0,0,0-.25,48.9c1.28,3.79,3.69,7,8.07,7.17,4.69.13,7.46-3.27,8.47-7.24C286.32,395.81,287.59,387.8,289.23,379.47ZM288,417.53c0,8.29,5.37,15.81,11.36,16s11.76-7.71,11.65-16.18c-.08-5.64-4.2-8.73-11.6-8.68S288,411.85,288,417.53Z" transform="translate(-164 -301.89)"/><path class="cls-1" d="M200.19,494.82c-.11,6.19-7,12.53-12.49,12.06-3.83-.33-5.09-2.74-4.68-6.22.56-4.84,6.33-10.29,11.19-10.64C198.11,489.74,200.15,491.57,200.19,494.82Z" transform="translate(-164 -301.89)"/><path class="cls-1" d="M410.81,506.89c-4.93,0-11.2-5.46-11.87-10.4-.61-4.48,1.92-7,6.39-6.41,4.69.63,10.11,6,10.7,10.58C416.51,504.41,414.46,506.87,410.81,506.89Z" transform="translate(-164 -301.89)"/><path d="M309.89,379.7c1.46-8.15,2.49-15.88,4.32-23.41,1-4.26,3.6-8.19,8.81-8.19,5,0,7.34,3.82,8.55,7.88,4.72,15.83,5.05,31.75-.27,47.54-1.25,3.69-3.38,7.21-7.92,7.27-4.86.07-7.88-3.26-8.92-7.43C312.51,395.53,311.35,387.5,309.89,379.7Zm20.46-15.89c-.92-3.16-1.37-6.54-2.85-9.38-2.16-4.14-6.6-4-9.19-.18-2.91,4.32-2.83,14.89.14,19.15,2.72,3.89,6.88,3.89,9.1-.38C329,370.3,329.39,367.1,330.35,363.81Z" transform="translate(-164 -301.89)"/><path d="M289.23,379.47c-1.64,8.33-2.91,16.34-4.9,24.18-1,4-3.78,7.37-8.47,7.24-4.38-.12-6.79-3.38-8.07-7.17a73.27,73.27,0,0,1,.25-48.9c1-2.83,4.76-5.77,7.78-6.52,4.2-1.05,7.31,2.57,8.28,6.41C286.18,362.86,287.56,371.18,289.23,379.47Zm-5.82-15.73c-.87-3.14-1.28-6.35-2.64-9.08-2.18-4.4-7.13-4.49-9.38-.2a19.22,19.22,0,0,0,.05,18.63c2.32,4.38,7.08,4.24,9.31-.25C282.11,370.1,282.53,366.9,283.41,363.74Z" transform="translate(-164 -301.89)"/><path d="M288,417.53c0-5.68,4-8.84,11.41-8.88s11.52,3,11.6,8.68c.11,8.47-5.56,16.34-11.65,16.18S288.06,425.82,288,417.53Zm11.7.58-6.93,5.55c2.3,2.11,4.43,5.57,6.95,5.88,1.92.24,4.34-3.52,6.53-5.51Z" transform="translate(-164 -301.89)"/><path class="cls-1" d="M330.35,363.81c-1,3.29-1.4,6.49-2.8,9.21-2.22,4.27-6.38,4.27-9.1.38-3-4.26-3.05-14.83-.14-19.15,2.59-3.85,7-4,9.19.18C329,357.27,329.43,360.65,330.35,363.81Z" transform="translate(-164 -301.89)"/><path class="cls-1" d="M283.41,363.74c-.88,3.16-1.3,6.36-2.66,9.1-2.23,4.49-7,4.63-9.31.25a19.22,19.22,0,0,1-.05-18.63c2.25-4.29,7.2-4.2,9.38.2C282.13,357.39,282.54,360.6,283.41,363.74Z" transform="translate(-164 -301.89)"/><path class="cls-1" d="M299.73,418.11l6.55,5.92c-2.19,2-4.61,5.75-6.53,5.51-2.52-.31-4.65-3.77-6.95-5.88Z" transform="translate(-164 -301.89)"/></svg>