<svg width="49" height="31" viewBox="0 0 49 31" fill="none" xmlns="http://www.w3.org/2000/svg">
<path d="M4.31163 0.00229465H4.59329C4.59329 0.0183568 4.59329 0.0286824 4.60926 0.0344189C4.84373 0.099345 5.04652 0.248283 5.17943 0.453183C5.2125 0.500222 5.241 0.549556 5.27065 0.59889C5.3003 0.648224 5.32083 0.690674 5.34705 0.736566C6.3209 2.44757 7.29476 4.1559 8.26861 5.86155C8.67229 6.57058 9.08509 7.27502 9.47509 7.99208C9.48368 8.00462 9.49363 8.01616 9.50474 8.0265C9.51256 8.06248 9.53036 8.09549 9.55606 8.12172C9.58711 8.16395 9.62679 8.199 9.67241 8.22453C9.71805 8.25005 9.76858 8.26547 9.82062 8.26973C9.86281 8.26973 9.90386 8.26973 9.94605 8.26973L11.6817 8.30185L12.1503 8.31103C12.7205 8.32594 13.2907 8.3443 13.854 8.35577C14.813 8.37642 15.7721 8.39249 16.7299 8.4097C16.7506 8.40815 16.7712 8.40547 16.7915 8.40167C16.8009 8.40627 16.8109 8.40937 16.8212 8.41084C17.0551 8.42863 17.2901 8.42633 17.5236 8.40396C17.7005 8.38343 17.8683 8.31393 18.0083 8.20318C18.0892 8.13672 18.1654 8.06465 18.2363 7.98749C18.7198 7.4735 19.2041 6.95989 19.6891 6.44667C19.7245 6.40766 19.761 6.3698 19.8032 6.33194C19.8844 6.24993 19.983 6.18755 20.0917 6.14952C20.2007 6.10774 20.319 6.09663 20.4338 6.11739C20.5211 6.13438 20.6043 6.16856 20.6784 6.21798C20.7526 6.2674 20.8163 6.33108 20.866 6.40537C20.8977 6.45311 20.9263 6.50293 20.9515 6.55451L23.4751 11.3984C23.6925 11.816 23.9099 12.2336 24.1273 12.6513C24.1623 12.7219 24.2044 12.7888 24.2528 12.8509C24.3157 12.9285 24.4003 12.9852 24.4957 13.0138C24.5257 13.0235 24.558 13.0235 24.588 13.0138C24.6837 12.9851 24.7686 12.9284 24.8321 12.8509C24.8801 12.7887 24.9217 12.7219 24.9564 12.6513C25.8603 10.9165 26.7642 9.18106 27.6681 7.44482C27.8255 7.14423 27.9824 6.84287 28.139 6.54075C28.1842 6.44618 28.2456 6.36035 28.3204 6.28719C28.3968 6.21123 28.4915 6.15642 28.5952 6.12808C28.6988 6.09973 28.8081 6.09882 28.9122 6.12543C29.0397 6.1562 29.1574 6.21896 29.2543 6.30785C29.2851 6.33538 29.3125 6.36751 29.3421 6.39734L29.9123 7.00196L30.8588 8.00699C30.9265 8.07989 30.9997 8.1474 31.0777 8.20892C31.214 8.31575 31.377 8.38247 31.5487 8.40167C31.6834 8.41749 31.819 8.42363 31.9546 8.42002L33.3766 8.39134C34.1331 8.37681 34.8887 8.36074 35.6436 8.34315L37.3017 8.31103L39.0989 8.27546C39.1456 8.27546 39.1935 8.27546 39.2403 8.27546C39.2977 8.27263 39.3536 8.25606 39.4034 8.22713C39.4532 8.19819 39.4954 8.15773 39.5265 8.1091C39.5584 8.06092 39.5869 8.01044 39.6143 7.95995C39.6861 7.8326 39.7534 7.70296 39.8264 7.57561L42.813 2.34049C43.1452 1.75919 43.4763 1.17713 43.8062 0.594301C43.872 0.474763 43.9545 0.365406 44.0514 0.269615C44.1515 0.169212 44.2738 0.0941137 44.4083 0.0504814C44.4322 0.0424503 44.4573 0.0355664 44.4813 0.0252407C44.4813 0.0252407 44.4813 0.00917839 44.4813 0H44.731C44.7295 0.00337592 44.7289 0.00705963 44.7291 0.0107389C44.7294 0.0144181 44.7305 0.0179845 44.7324 0.0211363C44.7343 0.0242881 44.7369 0.0269325 44.7401 0.0288453C44.7432 0.030758 44.7467 0.0318829 44.7504 0.0321246C44.8616 0.0612775 44.965 0.114603 45.0535 0.188343C45.142 0.262084 45.2133 0.354445 45.2624 0.458919C45.2875 0.504811 45.308 0.552998 45.3297 0.601184C45.3663 0.695658 45.3931 0.793705 45.4095 0.893745C45.4437 1.05207 45.4734 1.21155 45.5053 1.37102C45.5657 1.68423 45.6193 1.99859 45.6707 2.3141C45.714 2.59978 45.7562 2.88775 45.7847 3.17113C45.7984 3.28586 45.8132 3.40977 45.8257 3.53024C45.8428 3.69086 45.86 3.85263 45.8748 4.0144C45.8896 4.17617 45.9033 4.37006 45.917 4.54789C45.9329 4.76129 45.9512 4.97583 45.9649 5.19038C45.9808 5.45655 45.9934 5.72387 46.0071 5.99349C46.0071 6.02446 46.0071 6.05659 46.0071 6.08756C46.023 6.3698 46.039 6.65318 46.0561 6.93542C46.0698 7.16488 46.0823 7.39434 46.0971 7.6238C46.1051 7.73853 46.1154 7.86358 46.1245 7.98405C46.1371 8.1309 46.1496 8.27661 46.1633 8.42232C46.177 8.56802 46.1941 8.71488 46.2112 8.86058C46.2351 9.06825 46.2556 9.27705 46.2853 9.48472C46.3286 9.77957 46.3742 10.0744 46.4278 10.3681C46.5099 10.8332 46.6088 11.2921 46.7243 11.7449C46.9551 12.6478 47.2407 13.5355 47.5796 14.4032C47.9217 15.2866 48.3105 16.1494 48.7279 16.9995C48.7735 17.0936 48.8191 17.1877 48.8602 17.2829C48.9107 17.3931 48.9489 17.5085 48.9742 17.6271C48.9734 17.6657 48.9777 17.7043 48.9868 17.7418C48.9954 17.7751 48.9996 17.8095 48.9993 17.8439V18.0011C49.0018 18.0308 48.9975 18.0606 48.9868 18.0883C48.9715 18.1196 48.9675 18.1553 48.9754 18.1893C48.9515 18.2966 48.9102 18.3993 48.8533 18.4933C48.7883 18.6001 48.7118 18.6993 48.6253 18.7893C48.5523 18.865 48.477 18.9373 48.3972 19.0084L44.4779 22.6213L43.8894 23.1639C43.7814 23.2634 43.6672 23.3558 43.5473 23.4404C43.3409 23.5845 43.1024 23.6751 42.8529 23.7043C42.7249 23.7185 42.5962 23.7254 42.4674 23.725H39.1057C38.9881 23.7256 38.8718 23.7507 38.7643 23.7986C38.6567 23.8466 38.5602 23.9165 38.4808 24.0038C38.4025 24.0882 38.3341 24.1814 38.2767 24.2814C38.2064 24.4037 38.145 24.531 38.0931 24.6623L36.5559 28.4083L35.9949 29.7735C35.9101 29.9875 35.8063 30.1933 35.6847 30.3885C35.6124 30.5041 35.5283 30.6117 35.4338 30.7097C35.3217 30.8278 35.1828 30.9168 35.029 30.969C35.0159 30.9764 35.004 30.9857 34.9936 30.9966H34.5877C34.5851 30.9891 34.5805 30.9825 34.5745 30.9775C34.5685 30.9724 34.5612 30.9691 34.5535 30.9679C34.3994 30.9159 34.2609 30.8255 34.1509 30.7051C34.0937 30.6446 34.0396 30.581 33.989 30.5147C33.9076 30.4066 33.8358 30.2914 33.7746 30.1705C33.7039 30.0363 33.6423 29.8974 33.5853 29.7575C33.1778 28.7631 32.7704 27.7711 32.3629 26.7814C32.0755 26.08 31.7874 25.379 31.4985 24.6784C31.4547 24.5661 31.4004 24.4581 31.3366 24.356C31.1484 24.0497 30.8595 23.8195 30.5201 23.7055C30.2415 23.6127 29.944 23.593 29.6557 23.6481C29.3728 23.6982 29.1031 23.806 28.8632 23.9648C28.7354 24.0462 28.6142 24.1375 28.5005 24.2378C28.3523 24.3698 28.2052 24.504 28.0615 24.6394C27.9178 24.7748 27.7548 24.94 27.6054 25.0868C27.456 25.2337 27.3146 25.3576 27.1641 25.4872C26.939 25.6822 26.6971 25.8566 26.4411 26.0081C25.9579 26.2912 25.4202 26.4672 24.864 26.5244C24.5628 26.5546 24.259 26.5434 23.9608 26.4911C23.4772 26.4102 23.0131 26.2385 22.5924 25.9852C22.3475 25.8355 22.1149 25.6663 21.8968 25.4792C21.6824 25.2968 21.4783 25.1006 21.2765 24.9056C21.1453 24.7771 21.0153 24.6497 20.8831 24.5224C20.7508 24.395 20.5911 24.2527 20.4349 24.1311C20.3158 24.0372 20.1896 23.9528 20.0575 23.8787C19.7778 23.7219 19.4652 23.6338 19.1452 23.6217C18.9682 23.6141 18.7911 23.635 18.6206 23.6837C18.2499 23.7869 17.9313 24.0265 17.7277 24.3548C17.6566 24.471 17.5963 24.5935 17.5476 24.7208C17.2214 25.5132 16.896 26.3068 16.5714 27.1015C16.1997 28.0056 15.8275 28.91 15.455 29.8148C15.3979 29.9554 15.3328 30.0925 15.26 30.2256C15.1865 30.3643 15.099 30.495 14.9989 30.6157C14.8692 30.7817 14.6952 30.9071 14.4971 30.9771C14.4892 30.9771 14.4857 30.992 14.4789 31H14.0729C14.0661 30.992 14.0593 30.9816 14.0513 30.9782C13.8572 30.9136 13.6858 30.7941 13.5575 30.634C13.4693 30.5305 13.3907 30.4192 13.3226 30.3013C13.2264 30.1333 13.1418 29.9589 13.0694 29.7793C12.57 28.5601 12.0697 27.3409 11.5688 26.1217L10.9575 24.6428C10.9019 24.5013 10.8339 24.3651 10.7546 24.2355C10.697 24.1419 10.6289 24.0553 10.5516 23.9774C10.3992 23.8255 10.1957 23.7366 9.9814 23.7284C9.92438 23.7284 9.86737 23.7284 9.80921 23.7284H6.60599C6.47567 23.7292 6.34543 23.7219 6.21599 23.7066C5.95558 23.6791 5.707 23.5829 5.4953 23.4278C5.40294 23.3601 5.31399 23.2879 5.22732 23.2121C5.11329 23.1169 5.01066 23.0159 4.90347 22.9161L0.684205 19.0291C0.611223 18.9614 0.539381 18.8937 0.46982 18.8226C0.38528 18.7375 0.308918 18.6445 0.241752 18.5449C0.167757 18.4367 0.112965 18.3163 0.0798183 18.1893C0.0684149 18.1434 0.0627165 18.0975 0.0547341 18.0504C0.0539272 18.0286 0.0486511 18.0071 0.039234 17.9873C0.029817 17.9676 0.016463 17.95 0 17.9357V17.8738C0.0125438 17.8646 0.0285082 17.8588 0.0353503 17.8462C0.0453345 17.8282 0.0515405 17.8083 0.0535927 17.7877C0.0757459 17.6107 0.124583 17.4382 0.198418 17.276C0.23719 17.1842 0.28052 17.0947 0.323853 17.0064C0.579289 16.4909 0.821802 15.9696 1.05139 15.4426C1.65027 14.084 2.12027 12.6715 2.45515 11.224C2.5441 10.8316 2.62012 10.4366 2.68322 10.0389C2.72769 9.76466 2.76418 9.49045 2.79725 9.2151C2.81094 9.11758 2.82234 9.01776 2.8326 8.9191C2.8326 8.8732 2.8326 8.82502 2.8326 8.77913C2.85054 8.72429 2.86016 8.66705 2.86111 8.60933C2.86111 8.55655 2.8691 8.50492 2.87252 8.45215C2.89875 8.1332 2.92725 7.8154 2.95006 7.49645C2.96831 7.2406 2.97857 6.9836 2.99225 6.72661C2.99225 6.70022 2.99225 6.67498 2.99225 6.64859C3.00974 6.36024 3.02608 6.07227 3.04129 5.78468C3.05497 5.53916 3.06752 5.29249 3.08462 5.04696C3.09831 4.85307 3.11769 4.66033 3.13251 4.47332C3.14428 4.37973 3.14809 4.28531 3.14391 4.19108C3.1525 4.16683 3.15899 4.14188 3.1633 4.11651C3.17813 3.97539 3.18953 3.83542 3.20436 3.6943C3.22716 3.47058 3.24883 3.24685 3.27848 3.02428C3.31155 2.76499 3.35032 2.50685 3.39251 2.2487C3.42672 2.02728 3.46664 1.80585 3.50655 1.58442C3.54076 1.39397 3.57839 1.20466 3.62058 1.01077C3.64279 0.887295 3.6756 0.765992 3.71865 0.648224C3.75583 0.544901 3.80562 0.446628 3.86689 0.355663C3.95822 0.214037 4.09384 0.107059 4.25233 0.0516285C4.27229 0.0455868 4.29144 0.0371101 4.30935 0.0263878C4.30935 0.0263878 4.31277 0.011473 4.31163 0.00229465ZM9.15694 14.5156L8.63694 14.5041C8.18879 14.4915 7.74063 14.4789 7.29248 14.4789H7.15107C7.14091 14.4801 7.13145 14.4847 7.12421 14.492C7.11697 14.4993 7.11237 14.5088 7.11117 14.5191C7.10757 14.5453 7.10566 14.5717 7.10546 14.5982C7.11345 14.7026 7.12143 14.807 7.13169 14.9114C7.13383 14.9324 7.13764 14.9531 7.14309 14.9734C7.21223 15.3143 7.3796 15.6271 7.62432 15.8729C8.10747 16.3611 8.62377 16.815 9.16948 17.2313C10.019 17.8854 10.9367 18.4448 11.9063 18.8994C12.5243 19.1962 13.175 19.4184 13.8449 19.5614C14.1002 19.6142 14.359 19.6487 14.6192 19.6647C14.9157 19.6834 15.2132 19.6769 15.5086 19.6452C15.8659 19.6036 16.2172 19.5205 16.5555 19.3974C17.02 19.2223 17.4565 18.9795 17.8509 18.6769C18.2331 18.3848 18.587 18.0572 18.908 17.6982C19.3735 17.1756 19.8022 16.6208 20.1909 16.0381C20.1965 16.0293 20.2014 16.0201 20.2057 16.0105C20.2079 16.0059 20.209 16.0009 20.2089 15.9958C20.2088 15.9907 20.2076 15.9856 20.2053 15.9811C20.203 15.9765 20.1996 15.9726 20.1956 15.9695C20.1915 15.9665 20.1868 15.9644 20.1818 15.9635L19.5557 15.8316C19.1269 15.7421 18.6993 15.6503 18.2705 15.5631C17.9752 15.5023 17.6787 15.4484 17.3822 15.3887C17.1256 15.3405 16.8691 15.2958 16.6125 15.251C16.3924 15.2132 16.1712 15.1742 15.9499 15.1363C15.7082 15.0996 15.4664 15.0652 15.2236 15.0308C14.9556 14.9929 14.6876 14.9527 14.4185 14.916C14.1037 14.877 13.7867 14.8449 13.4708 14.8093L13.1287 14.7738C12.968 14.7577 12.8072 14.7393 12.6464 14.7244C12.4856 14.7095 12.2929 14.6957 12.1161 14.682L11.6782 14.6613C11.4433 14.6441 11.2096 14.6258 10.9758 14.612C10.7055 14.5948 10.4353 14.5822 10.1639 14.5684L9.15694 14.5156ZM34.1601 19.6785C34.3707 19.6815 34.5812 19.6673 34.7895 19.636C35.1152 19.5936 35.4373 19.5269 35.7531 19.4364C36.2386 19.2967 36.7122 19.1184 37.1694 18.9029C37.9814 18.5209 38.757 18.0651 39.4866 17.541C40.1976 17.0356 40.862 16.4669 41.4719 15.8419C41.6896 15.614 41.8407 15.3302 41.9087 15.0216C41.9383 14.8564 41.9555 14.6892 41.96 14.5214C41.959 14.5138 41.956 14.5067 41.9514 14.5006C41.9468 14.4946 41.9407 14.4899 41.9338 14.4869C41.8916 14.4869 41.8505 14.4869 41.8083 14.4869L40.5893 14.5099C40.3339 14.5099 40.0784 14.5202 39.8241 14.5294C39.4752 14.5432 39.1262 14.5604 38.7773 14.5776C38.5116 14.5902 38.247 14.6051 37.9791 14.62C37.9631 14.62 37.9483 14.62 37.9323 14.62L37.2777 14.6682L36.7167 14.7107C36.5867 14.721 36.4567 14.7336 36.3278 14.7462C36.1716 14.7611 36.0165 14.7783 35.8603 14.7944L35.4407 14.8357C35.3369 14.846 35.2342 14.8575 35.1305 14.8701L34.4942 14.9504C34.298 14.9757 34.1019 14.9998 33.9058 15.0273C33.6583 15.0629 33.412 15.1019 33.1645 15.142C32.9365 15.1776 32.7084 15.212 32.4803 15.2568C32.1565 15.3141 31.8338 15.3715 31.5122 15.4346C31.2203 15.4897 30.9291 15.547 30.6387 15.6067C30.2612 15.6847 29.8838 15.765 29.5075 15.8442L28.8654 15.9796C28.8529 15.9796 28.8392 16.0048 28.8449 16.0151C28.8506 16.0255 28.8689 16.061 28.8837 16.0828C29.0536 16.3215 29.219 16.5635 29.3934 16.7987C29.7217 17.2462 30.0831 17.6681 30.4745 18.0608C30.794 18.3772 31.1443 18.6605 31.5202 18.9063C32.3031 19.424 33.2233 19.6916 34.1601 19.6739V19.6785Z" fill="white"/>
</svg>
